<?xml version="1.0" encoding="UTF-8" standalone="no"?>
<svg xmlns="http://www.w3.org/2000/svg" version="1.1" viewBox="0 0 56 56" width="56" height="56">
 <path stroke="#000"  fill="none" d="m36.557,6.4272c0.39019-0.45399,0.36441-1.2668,0.67973-1.8351,0.22071-3.25-2.8916-3.8097-5.1196-2.2947,0.33493,0.47863,3.1599,2.485,3.0318,1.819-0.061-0.3161-0.241-0.5861-0.761-0.4914-0.937,0.1706,1.046,1.7243,1.23,1.9364,0.2544,0.30061,0.53681,0.73535,0.93927,0.8659l-0.00003-0.00011v0.00004h-0.00003zm-27.996,9.5608c-0.3383-2.322-1.4002,0.551-0.0838-0.767-0.1021-0.659,0.5903-2.253,0.1149-2.766-3.9591-0.757-4.4249,5.632-0.2847,6.101,0.8884,0.737,0.3615-2.077,0.2536-2.568zm37.079,6.1858c0.86938,0.01461,0.81678-0.98816,0.22067-1.3165,0.38747-0.25704,1.0629,0.53752,0.56863-0.61797-2.1482-0.75755-3.0339-0.56693-2.4058,1.6061,0.59954,0.02649,1.0201,0.3274,1.6165,0.32837l0.00008-0.00002zm-0.66637,23.435c0.76149-0.07149,0.91912-0.99226,0.58014-1.523,0.0237-0.72577,0.72887,0.0059,0.55337,0.05875-0.0241-1.1637-1.466-1.93-2.5346-1.7485,0.002,0.71544-1.0672,1.5116-0.38444,2.087,0.98559-0.24487,1.0812,0.8829,1.7855,1.1257l0.00003,0.00005zm-27.362,2.679c0.80318-0.0292-0.0543-1.6124-0.50909-0.91332-0.61617,0.49606-0.12971,1.0163,0.50909,0.91332zm11.176-43.154c0.829-0.8172,1.33,0.4535,0.867,0.8329-0.462,0.3794-1.695-0.0158-0.867-0.8329zm0.532,1.9267c-1.3391,0.13075-2.0456-1.4755-1.2522-2.4505,0.65715-0.71986,1.9633-0.71916,2.5241,0.15331,0.44373,1.0213-0.58872,2.5574-1.272,2.2973l0.0001-0.000066v-0.000044zm-2.261-5.7391c7.666,1.8495,4.061,10.778-1.34,9.8056-6.481-0.651-5.176-10.183,1.34-9.8056zm-8.2883,9.8715c0.35659-0.42068-0.000017-1.6023-0.60822-1.0554-1.1427,1.0273,0.25163,1.4761,0.60822,1.0554zm-0.38947,1.086c-1.3391,0.13074-2.0456-1.4755-1.2522-2.4505,0.67646-0.75452,1.9542-0.81511,2.4825,0.11382,0.46867,1.0057,0.01889,2.3877-1.2303,2.3367v-0.00002zm-6.7888,1.5847c-1.8143-3.8303,1.4763-6.6647,3.4297-6.9528,3.6112-0.44381,6.6155,2.2979,5.5384,6.3325-1.3466,3.444-6.4271,4.8774-8.9681,0.62028v0.00002zm9.9526,3.2509c1.2225-0.09702,1.6901-1.6311,2.9156-1.718,0.75312-0.393,1.6577-0.12105,2.3563-0.56065,0.24149-0.27718,0.69801-0.65222,0.52775-1.2123-0.56991-1.2571-2.685-1.4186-3.3298-0.08219-0.66282,0.65429-1.6068,0.73251-2.4953,0.76679-1.1718,0.42671-1.3283,2.329-0.11707,2.8143l0.13792-0.0077h0.005v0.000009l-0.0004-0.000259zm4.7034,1.2911c0.8323,0.20341,1.1156-0.66168,0.67979-1.2203-0.32802-0.7258-0.89272-2.0096-1.8751-1.5333-0.57541-0.03345-0.21353,1.1288-0.20782,0.84789,0.45586,0.55023,1.5158,2.3272,1.0479,1.8378,0.0964,0.0692,0.24058,0.06801,0.35519,0.06792l0.00004-0.00001zm-1.7276,0.87595c0.45804-0.04713,1.1823-0.41553,0.80058-0.92892-0.009-0.30201-0.51059-1.0581-0.14824-0.80659-0.28956,0.20722-1.8045-1.5474-1.1187-1.592-1.2437,0.26342-0.99832,1.4827-0.53722,2.3513,0.15517,0.57492,0.39846,0.98045,1.0036,0.97617l-0.00002,0.00004zm-0.38701,0.33521c-1.1298-0.2693-0.89439-1.7895-1.418-2.5256-0.6186,0.34719-1.3794,0.59247-2.0015,0.05866-0.75584-0.64982-0.85847-2.1011,0.0214-2.6962,0.58448-0.36457-0.20167-0.97912,0.2412-1.4545,0.44463-1.0197,1.6835-1.4477,2.7113-1.6579,0.52297,0.0309,1.3535,1.1704,1.1286,0.82838,0.8099,0.22979,1.8276-0.2401,2.4168,0.59189,0.53524,0.58914,0.88616,1.5005,0.19503,2.1119-1.1816,0.43356-0.96456,1.1397-0.19202,2.0772,0.35866,0.63825,0.3647,1.525-0.50507,1.7477-0.92454,0.17338-1.6153,0.88796-2.5978,0.91852l0.00006-0.00005zm11.491,8.8598c0.95358,0.01529,0.40009-1.1862,0.25906-1.5105,0.39966-0.05807,0.74844,1.2641,0.74962,0.32479-0.0445-1.5145-1.76-1.7183-2.9263-1.5972-0.69622-0.15226-0.45662,0.80275-0.46789,1.1672-0.93066,1.3908,0.64227,0.81034,1.3802,1.0588,0.3375,0.16138,0.57963,0.56162,1.0053,0.55689l0.00001,0.00002zm-3.1122-0.69289c0.50045-0.6925,0.29208-1.6579,0.54674-2.424,1.3176-0.27036,3.2445-0.14555,3.7886,1.3728,0.45287,0.80296-0.0212,1.6677-0.80732,1.9706-0.70944,0.44453-1.4167-0.3341-2.0502-0.58465-1.2106-0.02641-1.2577-0.16254-2.0953,0.40275-1.6799,1.1146,0.19085-0.35467,0.61745-0.7375h0.00003zm-10.866,27.375c0.38678-0.11069-0.63714-1.0423,0.01549-1.1999,0.42878,0.24773,0.34683,1.5154,1.1207,1.0848,1.0613-0.3478,0.92024-1.811,1.7813-2.4219-0.41234-1.7504-1.4453-2.0803-2.5319-0.57449-0.35118,0.89193-1.6399,2.0407-0.77272,3.0046,0.13006,0.02929,0.24702,0.13273,0.38709,0.10691l0.00004-0.00002zm1.2412,0.41516c-0.80103-0.18159-2.0397,0.08355-2.2953-0.98087-0.11096-1.066,0.93709-1.8474,1.1862-2.856-1.6252-0.95304-2.9254-2.0378-3.4823-3.203-0.58314,0.0085-1.5072,0.23371-1.6661-0.55697-0.21988-0.73427,0.99308-1.11,0.44752-1.8301-0.55025-1.5944-0.56722-3.3059-0.3317-4.9882-0.0428-2.2024-0.0991-4.4564-0.8281-6.5655-0.12472-1.5349-0.4684-3.0671-1.3801-4.3325-0.88827-1.5175-1.8012-3.0018-2.832-4.4115-0.65736-1.6289-1.4458-3.1892-2.1225-4.8052-0.10502-1.0489-0.48571-2.0407-1.6379-2.1709-2.0433-0.27155-2.4171-1.6036-2.6974-3.4062-0.0183-1.507,1.2028-2.6138,2.5048-3.1791,0.70573-0.15503,1.2423-0.3236,1.2866-1.1749,0.82545-1.7233,2.1749-3.0963,3.6603-4.2267,1.2727-1.1924,3.0559-1.8156,4.4224-2.9743,1.7392-1.0924,3.5201-2.3224,5.5857-2.6755,2.1567-0.72856,4.5461-0.97593,6.7258-0.15632,0.87779,0.15767,1.579,0.88955,2.444,0.9882,0.81944-0.74608,0.75157-0.83439,1.558-1.0236,0.56212-0.17755,1.1532-0.3436,1.6799-0.064017,0.92482,0.24506,1.806,0.85061,2.346,1.6413,0.47369,1.3561-0.0779,2.7155-0.54862,3.9694-0.0159,0.63308,0.95771,1.5201,1.0955,1.7667,0.33039,0.59122,1.5522,2.8437,1.956,4.4277,0.23118,1.2189,1.1001,2.6252,1.5853,3.4203,0.86782,0.8909,1.8688,2.4886,2.1666,3.6748,2.8107-0.74138,4.339-0.25582,2.9548,1.5328,0.0774,0.95345-1.1787,1.3654-1.871,0.89617-0.56173-0.16996-0.80984,0.12278-0.4634,0.63493,0.26105,1.3186,0.48459,2.6558,0.52793,4.0216,0.24055,0.95679,0.21786,1.968,0.15771,2.9074,0.013,0.92278-0.19871,1.9115,0.0431,2.8539-0.0322,0.80919-0.0364,1.7218-0.0808,2.4892-0.23177,0.97163-0.18384,2.0493-0.34939,3.0533-0.23457,0.81932-0.28724,1.7307-0.51313,2.588-0.006,0.46684-0.83497,1.4104,0.16186,1.3197,1.2136,0.06198,2.4891,1.1767,2.1432,2.4549-0.30039,0.59157-0.92523,1.4413-1.752,1.1882-0.6526-0.41999-1.362-1.6269-2.2209-1.0379-2.1426,2.2857-4.8696,3.9748-7.7106,5.2259-1.3513,0.59673-2.7361,1.1749-4.1516,1.5269-0.86332,0.29753-1.793,0.31974-2.6667,0.6286-0.85404,0.11732-1.7603,0.02029-2.5722,0.12854-0.37537,0.76102-1.2805,0.97387-1.3635,1.9273-0.22421,0.55003-0.37276,1.2985-1.102,1.3537l0.00003-0.000153-0.00004,0.00001h0.00003z"/>
</svg>
